<svg xmlns="http://www.w3.org/2000/svg" width="1200" height="630" viewBox="0 0 1200 630">
  <defs>
    <linearGradient id="sky" x1="0%" y1="0%" x2="0%" y2="100%">
      <stop offset="0%" style="stop-color:#0077B6"/>
      <stop offset="50%" style="stop-color:#00B4D8"/>
      <stop offset="100%" style="stop-color:#90E0EF"/>
    </linearGradient>
    <linearGradient id="sand" x1="0%" y1="0%" x2="0%" y2="100%">
      <stop offset="0%" style="stop-color:#F4E8C1"/>
      <stop offset="100%" style="stop-color:#DEB887"/>
    </linearGradient>
  </defs>
  <rect width="1200" height="630" fill="url(#sky)"/>
  <ellipse cx="1000" cy="120" rx="80" ry="80" fill="#FFD700" opacity="0.9"/>
  <path d="M0 420 Q300 380 600 400 Q900 420 1200 390 L1200 630 L0 630 Z" fill="url(#sand)"/>
  <path d="M0 400 Q200 360 400 380 Q600 400 800 370 Q1000 340 1200 360 L1200 420 Q900 400 600 380 Q300 360 0 400 Z" fill="#90E0EF" opacity="0.5"/>
  <text x="600" y="260" text-anchor="middle" font-family="Inter, Arial, sans-serif" font-weight="800" font-size="72" fill="white" letter-spacing="-2">Žnjan Beach</text>
  <text x="600" y="320" text-anchor="middle" font-family="Inter, Arial, sans-serif" font-weight="400" font-size="32" fill="white" opacity="0.9">Split's Premier Beach Destination</text>
  <text x="600" y="560" text-anchor="middle" font-family="Inter, Arial, sans-serif" font-weight="600" font-size="28" fill="#5D4E37" opacity="0.8">znjan.com</text>
</svg>
